# xmcd CD database file
#
# Track frame offsets:
#	150
#	13670
#	29258
#	44314
#	58719
#	74265
#	85417
#	104337
#	122124
#	136673
#	151349
#	164521
#	179711
#	191974
#	205337
#	217517
#	233612
#	250239
#	265426
#	281073
#	293245
#
# Disc length: 4025 seconds
#
# Revision: 0
# Processed by: cddbd v1.5.1PL0 Copyright (c) Steve Scherf et al.
# Submitted via: CDex 1.51
#
DISCID=3a0fb715
DTITLE=Viajando ao Passado - Volume IV
DYEAR=1900
DGENRE=Country
TTITLE0=Mar de Rosas
TTITLE1=De que vale ter redo na vida
TTITLE2=A desconhecida
TTITLE3=Ainda ultima a esperança
TTITLE4=foforinha
TTITLE5=Verdes campos
TTITLE6=apenas tres minutos
TTITLE7=Ferias na india
TTITLE8=eu so quero
TTITLE9=Quando chegar o amanhã
TTITLE10=Ave maria pro nosso  amor
TTITLE11=O grande amor da minha vida
TTITLE12=Naskali
TTITLE13=Sedejo louco
TTITLE14=Carta de amor
TTITLE15=A musica da minha vida
TTITLE16=Hey
TTITLE17=Emanuela
TTITLE18=Minhas coisas
TTITLE19=Entre espuma
TTITLE20=Moendo café
EXTD=
EXTT0=
EXTT1=
EXTT2=
EXTT3=
EXTT4=
EXTT5=
EXTT6=
EXTT7=
EXTT8=
EXTT9=
EXTT10=
EXTT11=
EXTT12=
EXTT13=
EXTT14=
EXTT15=
EXTT16=
EXTT17=
EXTT18=
EXTT19=
EXTT20=
PLAYORDER=
